<?xml version="1.0" encoding="UTF-8"?>
<svg version="1.1" xmlns="http://www.w3.org/2000/svg" width="490" height="210">
<path d="M0 0 C161.7 0 323.4 0 490 0 C490 69.3 490 138.6 490 210 C328.3 210 166.6 210 0 210 C0 140.7 0 71.4 0 0 Z " fill="#1D283B" transform="translate(0,0)"/>
<path d="M0 0 C1.12591553 0.00523682 2.25183105 0.01047363 3.41186523 0.01586914 C4.50571533 0.0183667 5.59956543 0.02086426 6.7265625 0.0234375 C8.82729126 0.03709351 8.82729126 0.03709351 10.97045898 0.05102539 C17.62202148 0.08196289 17.62202148 0.08196289 24.40795898 0.11352539 C24.40795898 11.99352539 24.40795898 23.87352539 24.40795898 36.11352539 C25.39795898 36.11352539 26.38795898 36.11352539 27.40795898 36.11352539 C27.40795898 62.51352539 27.40795898 88.91352539 27.40795898 116.11352539 C53.47795898 116.44352539 79.54795898 116.77352539 106.40795898 117.11352539 C106.40795898 122.06352539 106.40795898 127.01352539 106.40795898 132.11352539 C102.77795898 132.11352539 99.14795898 132.11352539 95.40795898 132.11352539 C95.44276367 133.42708008 95.47756836 134.74063477 95.51342773 136.09399414 C95.54157364 137.8296584 95.56887294 139.56533654 95.59545898 141.30102539 C95.6205957 142.1653418 95.64573242 143.0296582 95.67163086 143.92016602 C95.72698333 148.73583112 95.76753171 152.32343534 92.40795898 156.11352539 C88.90795898 156.73852539 88.90795898 156.73852539 85.40795898 156.11352539 C82.40795898 151.11352539 82.40795898 151.11352539 82.40795898 131.11352539 C56.99795898 131.11352539 31.58795898 131.11352539 5.40795898 131.11352539 C5.40795898 138.04352539 5.40795898 144.97352539 5.40795898 152.11352539 C2.40795898 156.11352539 2.40795898 156.11352539 -0.59204102 156.61352539 C-3.59204102 156.11352539 -3.59204102 156.11352539 -5.26123047 154.39379883 C-6.82233526 151.71892839 -6.94126274 150.20431304 -6.88500977 147.12915039 C-6.8753418 146.19458008 -6.86567383 145.26000977 -6.85571289 144.29711914 C-6.83057617 143.3290332 -6.80543945 142.36094727 -6.77954102 141.36352539 C-6.76600586 140.3799707 -6.7524707 139.39641602 -6.73852539 138.38305664 C-6.70323298 135.95964462 -6.64942761 133.5365149 -6.59204102 131.11352539 C-10.22204102 131.11352539 -13.85204102 131.11352539 -17.59204102 131.11352539 C-17.59204102 126.49352539 -17.59204102 121.87352539 -17.59204102 117.11352539 C-12.97204102 116.78352539 -8.35204102 116.45352539 -3.59204102 116.11352539 C-3.59426163 114.67501724 -3.59648224 113.23650909 -3.59877014 111.75440979 C-3.6189983 98.23058428 -3.63407155 84.70676034 -3.64385319 71.18292332 C-3.64901598 64.22936459 -3.65605835 57.27581712 -3.66748047 50.32226562 C-3.67848796 43.6179533 -3.68431722 36.91365514 -3.68691826 30.20933342 C-3.68877304 27.64514926 -3.69239465 25.08096577 -3.69777107 22.51678658 C-3.70497761 18.93907381 -3.70603212 15.3614102 -3.70556641 11.78369141 C-3.70916168 10.71195175 -3.71275696 9.6402121 -3.71646118 8.53599548 C-3.71508652 7.5669931 -3.71371185 6.59799072 -3.71229553 5.59962463 C-3.71321733 4.75249688 -3.71413912 3.90536913 -3.71508884 3.03257084 C-3.52223963 0.02490773 -3.03033227 0.13272153 0 0 Z " fill="#D2646F" transform="translate(196.592041015625,32.886474609375)"/>
<path d="M0 0 C0.33 0 0.66 0 1 0 C1 11.22 1 22.44 1 34 C2.32 34 3.64 34 5 34 C5.66 33.01 6.32 32.02 7 31 C9.86328125 30.5 9.86328125 30.5 13 31 C15.16796875 33.0625 15.16796875 33.0625 17.1875 36 C17.56495361 36.53689453 17.94240723 37.07378906 18.33129883 37.62695312 C19.57409825 39.40505395 20.78702499 41.20145085 22 43 C22.84211224 44.21988221 23.68588757 45.43861788 24.53125 46.65625 C26.36192435 49.30033013 28.1804319 51.95229908 29.9921875 54.609375 C33.22951919 59.34829585 36.51770332 64.05091619 39.8125 68.75 C40.39467285 69.58039795 40.9768457 70.4107959 41.57666016 71.26635742 C42.77165933 72.9704832 43.96681071 74.67450225 45.16210938 76.37841797 C47.05269422 79.07516346 48.94078224 81.7736409 50.828125 84.47265625 C51.45356201 85.36694336 52.07899902 86.26123047 52.72338867 87.18261719 C53.91385392 88.88495247 55.1041331 90.5874179 56.29418945 92.29003906 C56.837771 93.06702148 57.38135254 93.84400391 57.94140625 94.64453125 C58.45654785 95.38292236 58.97168945 96.12131348 59.50244141 96.88208008 C60.48417439 98.27049442 61.48084691 99.64849098 62.49365234 101.0144043 C65.95036978 105.68360734 65.95036978 105.68360734 66.5 109.1875 C65.92582821 112.41721634 65.31011979 113.68849039 63 116 C60.24751282 116.48101807 60.24751282 116.48101807 56.8762207 116.45410156 C55.61513992 116.45379944 54.35405914 116.45349731 53.05476379 116.45318604 C51.67842987 116.43275946 50.30210239 116.41189548 48.92578125 116.390625 C47.51760155 116.38316348 46.10941145 116.37747013 44.70121765 116.37347412 C40.99705271 116.35821038 37.29351638 116.31892336 33.58959961 116.2746582 C29.80916854 116.23372076 26.02863577 116.21546644 22.24804688 116.1953125 C14.83174484 116.15242883 7.41596054 116.0841698 0 116 C1.485 115.505 1.485 115.505 3 115 C3 88.6 3 62.2 3 35 C2.01 35 1.02 35 0 35 C0 23.45 0 11.9 0 0 Z " fill="#1F2A3C" transform="translate(221,34)"/>
<path d="M0 0 C5.25816706 4.37302471 8.04558995 9.09559114 9.94921875 15.62109375 C10.18972778 18.46859741 10.18972778 18.46859741 10.17626953 21.44287109 C10.17611847 22.56358002 10.17596741 23.68428894 10.17581177 24.83895874 C10.1654892 26.03292267 10.15516663 27.2268866 10.14453125 28.45703125 C10.14170135 29.69152008 10.13887146 30.92600891 10.13595581 32.19790649 C10.12478397 36.13073524 10.09968439 40.06333412 10.07421875 43.99609375 C10.063057 46.66666334 10.05505994 49.33723076 10.046875 52.0078125 C10.02485437 58.54566114 9.99034467 65.0833385 9.94921875 71.62109375 C5.98921875 71.62109375 2.02921875 71.62109375 -2.05078125 71.62109375 C-2.38078125 68.32109375 -2.71078125 65.02109375 -3.05078125 61.62109375 C-3.76234375 62.95140625 -3.76234375 62.95140625 -4.48828125 64.30859375 C-7.51040525 68.66583417 -10.98300437 71.05663492 -16.05078125 72.62109375 C-25.98924004 73.9412399 -35.16353585 73.23372161 -43.80078125 67.93359375 C-49.08135967 62.5063326 -50.34174518 57.70147562 -50.61328125 50.12109375 C-50.41617366 43.72463464 -49.72249317 39.16927482 -45.05078125 34.62109375 C-38.63899607 29.48908021 -33.14925777 28.48875981 -25 28.5234375 C-24.34119339 28.52485245 -23.68238678 28.5262674 -23.00361633 28.52772522 C-20.91512363 28.53328875 -18.82674114 28.54583428 -16.73828125 28.55859375 C-15.31575676 28.56361347 -13.89323059 28.56817555 -12.47070312 28.57226562 C-8.99736048 28.58324618 -5.52408164 28.6004854 -2.05078125 28.62109375 C-2.18390291 26.86019729 -2.3247079 25.09988056 -2.46875 23.33984375 C-2.54633545 22.35951172 -2.6239209 21.37917969 -2.70385742 20.36914062 C-3.27066883 15.87932416 -4.70731129 12.8386134 -8.05078125 9.80859375 C-13.04696669 6.84210865 -18.41801784 7.1617697 -24.05078125 7.62109375 C-27.73356985 9.00213947 -30.5911441 10.51418367 -33.05078125 13.62109375 C-33.38078125 14.61109375 -33.71078125 15.60109375 -34.05078125 16.62109375 C-38.01078125 16.62109375 -41.97078125 16.62109375 -46.05078125 16.62109375 C-45.61260241 11.14385825 -44.68708186 7.78953591 -41.05078125 3.62109375 C-29.78863546 -4.39920309 -12.45831422 -7.67501731 0 0 Z " fill="#2D5BF8" transform="translate(374.05078125,78.37890625)"/>
<path d="M0 0 C3.96 0 7.92 0 12 0 C12 17.82 12 35.64 12 54 C25.91113515 54.60636662 25.91113515 54.60636662 30.5546875 49.859375 C31.80211575 47.88374021 31.80211575 47.88374021 32.875 45.75 C33.31094482 45.03650391 33.74688965 44.32300781 34.19604492 43.58789062 C35.91926147 40.7603703 37.52090956 37.87367261 39.11279297 34.97070312 C41.37003245 30.91528882 43.54340147 27.1650143 47 24 C51.85268933 22.94170073 56.12357381 23.1884184 61 24 C59.60439277 27.99978156 57.72455049 30.91724296 55.125 34.25 C54.33738281 35.28769531 53.54976563 36.32539062 52.73828125 37.39453125 C51.28448967 39.30889787 49.83012394 41.22278075 48.37255859 43.13427734 C46.66670982 45.3883823 44.98796452 47.66075002 43.3125 49.9375 C42.75900879 50.65905273 42.20551758 51.38060547 41.63525391 52.12402344 C40.88187744 53.15897949 40.88187744 53.15897949 40.11328125 54.21484375 C39.65735596 54.82448975 39.20143066 55.43413574 38.73168945 56.06225586 C37.76368667 58.05224432 37.76368667 58.05224432 38.65014648 60.3840332 C40.12676658 63.245669 41.73874357 65.9339461 43.484375 68.640625 C44.17273438 69.71183594 44.86109375 70.78304687 45.5703125 71.88671875 C46.29683656 73.00783741 47.02339926 74.12893103 47.75 75.25 C48.45382812 76.34441406 49.15765625 77.43882812 49.8828125 78.56640625 C53.52113566 84.21324609 57.1972804 89.82887081 60.97753906 95.38183594 C62 97 62 97 62 98 C59.81952384 98.27218149 57.62906773 98.46503155 55.4375 98.625 C54.21933594 98.74101562 53.00117188 98.85703125 51.74609375 98.9765625 C45.81651628 97.43079152 44.06941147 93.03517617 41 88 C39.75963808 86.16101661 38.51091909 84.32764229 37.25390625 82.5 C36.02223157 80.66747662 34.79176465 78.83414091 33.5625 77 C32.60827148 75.59041016 32.60827148 75.59041016 31.63476562 74.15234375 C31.03470703 73.25644531 30.43464844 72.36054687 29.81640625 71.4375 C29.27443604 70.63183594 28.73246582 69.82617188 28.17407227 68.99609375 C27 67 27 67 27 65 C22.05 65 17.1 65 12 65 C12 75.89 12 86.78 12 98 C8.04 98 4.08 98 0 98 C0 65.66 0 33.32 0 0 Z " fill="#2D5CFA" transform="translate(402,52)"/>
<path d="M0 0 C40.92 0 81.84 0 124 0 C124 4.95 124 9.9 124 15 C120.37 15 116.74 15 113 15 C113.05220703 16.97033203 113.05220703 16.97033203 113.10546875 18.98046875 C113.13361466 20.71613301 113.16091396 22.45181115 113.1875 24.1875 C113.21263672 25.05181641 113.23777344 25.91613281 113.26367188 26.80664062 C113.31902435 31.62230572 113.35957272 35.20990995 110 39 C106.5 39.625 106.5 39.625 103 39 C100 34 100 34 100 14 C74.59 14 49.18 14 23 14 C23 20.93 23 27.86 23 35 C20 39 20 39 17 39.5 C14 39 14 39 12.33081055 37.28027344 C10.76970575 34.605403 10.65077827 33.09078765 10.70703125 30.015625 C10.71669922 29.08105469 10.72636719 28.14648438 10.73632812 27.18359375 C10.76146484 26.21550781 10.78660156 25.24742187 10.8125 24.25 C10.82603516 23.26644531 10.83957031 22.28289062 10.85351562 21.26953125 C10.88880803 18.84611923 10.94261341 16.42298951 11 14 C7.37 14 3.74 14 0 14 C0 9.38 0 4.76 0 0 Z " fill="#A58766" transform="translate(179,150)"/>
<path d="M0 0 C3.63 0 7.26 0 11 0 C11.33 10.56 11.66 21.12 12 32 C12.99 30.35 13.98 28.7 15 27 C19.38575937 22.47718564 23.31619746 20.83673907 29.5625 20.625 C35.99984511 20.7106237 40.86867915 22.03530272 46 26 C50.6000769 31.34958027 53.13008183 36.19489662 53.11352539 43.29760742 C53.11344986 44.37850143 53.11337433 45.45939545 53.11329651 46.57304382 C53.10813522 47.73874405 53.10297394 48.90444427 53.09765625 50.10546875 C53.0962413 51.29981033 53.09482635 52.49415192 53.09336853 53.72468567 C53.0877635 57.54564908 53.07521011 61.36655425 53.0625 65.1875 C53.05748565 67.77538978 53.05292263 70.36328048 53.04882812 72.95117188 C53.03779242 79.30080375 53.02052437 85.65039199 53 92 C49.37 92 45.74 92 42 92 C41.98541748 90.51677246 41.97083496 89.03354492 41.95581055 87.50537109 C41.89775551 81.99243288 41.82052221 76.47990001 41.73754883 70.96728516 C41.70433354 68.58323759 41.67629108 66.19911203 41.65356445 63.81494141 C41.61995682 60.38410261 41.56763593 56.95397637 41.51171875 53.5234375 C41.50532883 52.46071625 41.4989389 51.397995 41.49235535 50.30307007 C41.38372772 44.81200013 41.13969376 40.71651774 38 36 C33.57889261 31.99337143 29.26498423 31.64263871 23.5078125 31.7265625 C19.71135225 32.14050676 17.74680069 33.38718959 15 36 C11.63510654 42.07537593 11.53055475 47.55060611 11.48828125 54.40234375 C11.47033005 55.48004532 11.45237885 56.55774689 11.43388367 57.66810608 C11.37994554 61.09119826 11.34593724 64.5141523 11.3125 67.9375 C11.27931244 70.26629519 11.24482146 72.5950722 11.20898438 74.92382812 C11.12422821 80.6157855 11.05733796 86.30770307 11 92 C7.37 92 3.74 92 0 92 C0 61.64 0 31.28 0 0 Z " fill="#2D5CFB" transform="translate(26,58)"/>
<path d="M0 0 C3.63 0 7.26 0 11 0 C11.01458252 1.41740479 11.02916504 2.83480957 11.04418945 4.29516602 C11.10231444 9.57145981 11.17954705 14.84733319 11.26245117 20.12329102 C11.29563367 22.40349486 11.32368624 24.68377953 11.34643555 26.96411133 C11.38010382 30.24855882 11.43242726 33.53227014 11.48828125 36.81640625 C11.49467117 37.83021866 11.5010611 38.84403107 11.50764465 39.88856506 C11.65114058 46.85138459 12.46179629 51.90656423 17 57.4375 C21.60145386 59.83409055 25.91862429 59.61185434 31 59 C34.81575433 57.70536907 36.42150933 56.77797021 38.8125 53.5625 C40.58835342 49.73039525 41.12612959 46.43997013 41.20532227 42.23144531 C41.22526749 41.29077209 41.24521271 40.35009888 41.26576233 39.38092041 C41.28247482 38.37349792 41.29918732 37.36607544 41.31640625 36.328125 C41.33718735 35.29057068 41.35796844 34.25301636 41.37937927 33.184021 C41.44471408 29.87274742 41.50368517 26.56139518 41.5625 23.25 C41.60570049 21.00389815 41.64931527 18.75780422 41.69335938 16.51171875 C41.80037907 11.00789292 41.90169192 5.50398805 42 0 C45.63 0 49.26 0 53 0 C53.0993819 6.93762097 53.17171157 13.87482128 53.21972656 20.81298828 C53.23975732 23.16983261 53.26698992 25.52662778 53.30175781 27.88330078 C53.35065172 31.28430362 53.37305502 34.6846455 53.390625 38.0859375 C53.41127014 39.12801361 53.43191528 40.17008972 53.45318604 41.2437439 C53.45556092 49.10659995 52.04154264 56.0702758 47.140625 62.40234375 C38.88556093 69.10531932 32.43749298 70.6626864 21.69921875 70.40625 C15.34651565 69.70859306 10.58898153 67.68086606 6.12890625 63.0625 C2.10047914 57.96175776 -0.25914512 53.25432222 -0.22705078 46.65893555 C-0.22689972 45.6182341 -0.22674866 44.57753265 -0.22659302 43.5052948 C-0.21110916 41.83784966 -0.21110916 41.83784966 -0.1953125 40.13671875 C-0.1924826 38.98959915 -0.18965271 37.84247955 -0.18673706 36.66059875 C-0.17555697 33.00279232 -0.15045595 29.34523222 -0.125 25.6875 C-0.11496741 23.20508167 -0.10584205 20.72265949 -0.09765625 18.24023438 C-0.07562467 12.16006158 -0.04110935 6.08007253 0 0 Z " fill="#2D5CFA" transform="translate(102,81)"/>
<path d="M0 0 C3.19921875 0.375 3.19921875 0.375 5.3671875 2.4375 C6.03363281 3.406875 6.70007813 4.37625 7.38671875 5.375 C7.76417236 5.91189453 8.14162598 6.44878906 8.53051758 7.00195312 C9.773317 8.78005395 10.98624374 10.57645085 12.19921875 12.375 C13.04133099 13.59488221 13.88510632 14.81361788 14.73046875 16.03125 C16.5611431 18.67533013 18.37965065 21.32729908 20.19140625 23.984375 C23.42873794 28.72329585 26.71692207 33.42591619 30.01171875 38.125 C30.5938916 38.95539795 31.17606445 39.7857959 31.77587891 40.64135742 C32.97087808 42.3454832 34.16602946 44.04950225 35.36132812 45.75341797 C37.25191297 48.45016346 39.14000099 51.1486409 41.02734375 53.84765625 C41.65278076 54.74194336 42.27821777 55.63623047 42.92260742 56.55761719 C44.11307267 58.25995247 45.30335185 59.9624179 46.4934082 61.66503906 C47.03698975 62.44202148 47.58057129 63.21900391 48.140625 64.01953125 C48.65568604 64.7580835 49.17074707 65.49663574 49.70141602 66.25756836 C50.68292122 67.64511434 51.68037714 69.02154431 52.69506836 70.38500977 C56.15564058 75.04505099 56.15564058 75.04505099 56.63671875 78.6875 C56.19921875 81.375 56.19921875 81.375 54.19921875 83.375 C51.3984375 83.90625 51.3984375 83.90625 48.19921875 83.375 C46.12949523 81.2152885 44.63814048 79.33661946 43.01171875 76.875 C42.54032471 76.19719482 42.06893066 75.51938965 41.58325195 74.82104492 C40.10314354 72.68458549 38.65087443 70.53086103 37.19921875 68.375 C36.3132685 67.08841548 35.42530759 65.80321275 34.53515625 64.51953125 C32.72345416 61.90229273 30.92270193 59.2779789 29.12890625 56.6484375 C25.95903975 52.01124002 22.7377321 47.41074574 19.51171875 42.8125 C15.59113044 37.22423159 11.67856474 31.63069087 7.78515625 26.0234375 C7.05256592 24.96842041 6.31997559 23.91340332 5.56518555 22.82641602 C4.13090496 20.75978534 2.69745209 18.69257993 1.26489258 16.62475586 C0.6180249 15.69284424 -0.02884277 14.76093262 -0.6953125 13.80078125 C-1.27128174 12.96973877 -1.84725098 12.13869629 -2.44067383 11.2824707 C-3.66153017 9.45918058 -3.66153017 9.45918058 -4.80078125 8.375 C-3.96027185 0.5302456 -3.96027185 0.5302456 0 0 Z " fill="#479B93" transform="translate(230.80078125,64.625)"/>
<path d="M0 0 C1.87558594 0.00966797 1.87558594 0.00966797 3.7890625 0.01953125 C5.09101563 0.03628906 6.39296875 0.05304688 7.734375 0.0703125 C9.05179687 0.07933594 10.36921875 0.08835937 11.7265625 0.09765625 C14.97934962 0.12122717 18.23177089 0.15413228 21.484375 0.1953125 C21.51488014 2.11318186 21.53662941 4.03119181 21.5546875 5.94921875 C21.56773926 7.0172876 21.58079102 8.08535645 21.59423828 9.18579102 C21.38757797 14.8469058 19.73599615 17.94369135 15.671875 22.0078125 C9.2282833 26.42988524 3.13635053 26.91375432 -4.515625 26.1953125 C-8.42682216 24.91528434 -10.10559859 23.63770942 -12.890625 20.6328125 C-15.06003462 16.04367677 -15.34944831 12.18991415 -14.515625 7.1953125 C-10.894092 0.98697022 -6.90441891 -0.06276744 0 0 Z " fill="#1B2639" transform="translate(350.515625,115.8046875)"/>
</svg>
